<svg width="24" height="24" viewBox="0 0 24 24" fill="none" xmlns="http://www.w3.org/2000/svg">
<path d="M24 0L21.8135 21.5975L11.9853 24L2.18415 21.6009L0 0H24Z" fill="#264DE4"/>
<path d="M19.9417 20.2222L21.8102 1.76617H12V22.1636L19.9417 20.2222Z" fill="#2965F1"/>
<path d="M5.00714 9.77765L5.27643 12.4269H12V9.77765H5.00714Z" fill="#EBEBEB"/>
<path d="M12 4.41547H11.9896H4.466L4.73913 7.06475H12V4.41547Z" fill="#EBEBEB"/>
<path d="M12 19.4143V16.658L11.9868 16.6611L8.64065 15.8644L8.42674 13.7515H6.80075H5.41064L5.83158 17.9112L11.9862 19.4177L12 19.4143Z" fill="#EBEBEB"/>
<path d="M15.6894 12.4269L15.3406 15.8627L11.9896 16.6603V19.4165L18.1491 17.9112L18.1943 17.4637L18.9003 10.489L18.9736 9.77763L19.5161 4.41547H11.9896V7.06475H16.2233L15.9499 9.77763H11.9896V12.4269H15.6894Z" fill="white"/>
</svg>
