<svg width="20" height="25" viewBox="0 0 20 25" fill="none" xmlns="http://www.w3.org/2000/svg">
<path d="M5.97266 25C9.00866 25 11.4727 22.984 11.4727 20.5V16H5.97266C2.93666 16 0.472656 18.016 0.472656 20.5C0.472656 22.984 2.93666 25 5.97266 25Z" fill="#0ACF83"/>
<path d="M1.41797 12.5C1.41797 10.568 3.65797 9 6.41797 9H11.418V16H6.41797C3.65797 16 1.41797 14.432 1.41797 12.5Z" fill="#A259FF"/>
<path d="M1.52734 4.5C1.52734 2.016 3.76734 0 6.52734 0H11.5273V9H6.52734C3.76734 9 1.52734 6.984 1.52734 4.5Z" fill="#F24E1E"/>
<path d="M10.5273 0H15.0273C17.5113 0 19.5273 2.016 19.5273 4.5C19.5273 6.984 17.5113 9 15.0273 9H10.5273V0Z" fill="#FF7262"/>
<path d="M19.2613 12.5C19.2613 14.432 17.4693 16 15.2613 16C13.0533 16 11.2613 14.432 11.2613 12.5C11.2613 10.568 13.0533 9 15.2613 9C17.4693 9 19.2613 10.568 19.2613 12.5Z" fill="#1ABCFE"/>
</svg>
