<svg width="26" height="26" viewBox="0 0 26 26" fill="none" xmlns="http://www.w3.org/2000/svg">
<path d="M25.5097 11.8418L14.1578 0.490327C13.5045 -0.163442 12.4442 -0.163442 11.79 0.490327L9.43274 2.84764L12.423 5.838C13.1179 5.60318 13.9148 5.76071 14.4687 6.31464C15.0253 6.87213 15.1817 7.6758 14.9412 8.37294L17.823 11.2549C18.5203 11.0147 19.3247 11.1701 19.8816 11.7279C20.6599 12.5059 20.6599 13.7668 19.8816 14.5453C19.1031 15.3239 17.8422 15.3239 17.0633 14.5453C16.4779 13.9593 16.3333 13.0995 16.6297 12.3783L13.9421 9.69074L13.9418 16.7634C14.1366 16.8597 14.3146 16.987 14.4687 17.1402C15.247 17.9182 15.247 19.1792 14.4687 19.9583C13.6902 20.7365 12.4287 20.7365 11.6514 19.9583C10.8731 19.1792 10.8731 17.9183 11.6514 17.1403C11.8379 16.9537 12.0595 16.8059 12.3035 16.7055V9.56693C12.0592 9.46719 11.8374 9.31933 11.6514 9.13214C11.0617 8.54327 10.9199 7.67804 11.2221 6.95399L8.27431 4.00588L0.490548 11.7893C-0.163516 12.4436 -0.163516 13.5041 0.490548 14.1579L11.8426 25.5096C12.4962 26.1635 13.5563 26.1635 14.2107 25.5096L25.5096 14.2107C26.1635 13.5566 26.1636 12.4955 25.5097 11.8418Z" fill="#DE4C36"/>
</svg>
