<svg width="27" height="26" viewBox="0 0 27 26" fill="none" xmlns="http://www.w3.org/2000/svg">
<path d="M13.5001 0C6.32124 0 0.5 5.96754 0.5 13.3291C0.5 19.2183 4.2249 24.2146 9.39026 25.9771C10.0399 26.1005 10.2785 25.688 10.2785 25.3359C10.2785 25.0181 10.2664 23.968 10.2609 22.8542C6.64414 23.6605 5.88099 21.2816 5.88099 21.2816C5.28964 19.7409 4.43759 19.3313 4.43759 19.3313C3.25815 18.504 4.52649 18.521 4.52649 18.521C5.83195 18.615 6.51935 19.8946 6.51935 19.8946C7.67881 21.9323 9.56053 21.3432 10.3024 21.0027C10.419 20.1411 10.756 19.5532 11.1277 19.2203C8.24028 18.8832 5.20481 17.7403 5.20481 12.633C5.20481 11.1778 5.71266 9.98869 6.54433 9.05527C6.40934 8.71949 5.9644 7.36385 6.67025 5.52785C6.67025 5.52785 7.7619 5.1696 10.2462 6.89416C11.2831 6.59874 12.3952 6.45071 13.5001 6.44569C14.6049 6.45071 15.7178 6.59874 16.7568 6.89416C19.2381 5.1696 20.3282 5.52785 20.3282 5.52785C21.0358 7.36385 20.5907 8.71949 20.4557 9.05527C21.2892 9.98869 21.7936 11.1777 21.7936 12.633C21.7936 17.7524 18.7524 18.8797 15.8576 19.2096C16.3239 19.6233 16.7393 20.4345 16.7393 21.678C16.7393 23.4614 16.7242 24.8968 16.7242 25.3359C16.7242 25.6906 16.9582 26.1062 17.6173 25.9753C22.7798 24.2108 26.5 19.2163 26.5 13.3291C26.5 5.96754 20.6796 0 13.5001 0Z" fill="white"/>
</svg>
