<svg width="26" height="26" viewBox="0 0 26 26" fill="none" xmlns="http://www.w3.org/2000/svg">
<path d="M16.3421 17.2213H14.5594L14.4105 17.0521V12.3094C14.4105 11.4656 14.1187 10.8116 13.2234 10.7887C12.7626 10.775 12.2354 10.7887 11.6721 10.8139L11.5875 10.9122V12.8285V17.0498L11.4386 17.219H9.65595L9.50705 17.0498V8.94791L9.65595 8.77869H13.668C15.2274 8.77869 16.491 10.2148 16.491 11.987V17.0521L16.3421 17.2213Z" fill="white"/>
<path d="M7.02617 21.7102H6.7807L5.55536 20.3176V20.0386L7.42859 17.9097H8.72638L8.89941 18.1063V19.5813L7.02617 21.7102Z" fill="#32E6E2"/>
<path d="M5.55536 5.95921V5.68022L6.7807 4.2876H7.02617L8.89941 6.41653V7.89147L8.72638 8.08814H7.42859L5.55536 5.95921Z" fill="#32E6E2"/>
<path d="M7.27966 14.1846H0.148878L-1.52588e-05 14.0154V11.9848L0.148878 11.8156H7.27966L7.42856 11.9848V14.0154L7.27966 14.1846Z" fill="#32E6E2"/>
<path d="M25.8511 14.1846H18.7203L18.5714 14.0154V11.9848L18.7203 11.8156H25.8511L26 11.9848V14.0154L25.8511 14.1846Z" fill="#32E6E2"/>
<path d="M11.9718 6.24734V0.169218L12.1207 0H13.9074L14.0563 0.169218V6.24734L13.9074 6.41654H12.1207L11.9718 6.24734Z" fill="#32E6E2"/>
<path d="M11.9718 25.8308V19.7527L12.1207 19.5835H13.9074L14.0563 19.7527V25.8308L13.9074 26H12.1207L11.9718 25.8308Z" fill="#32E6E2"/>
</svg>
