<svg width="25" height="24" viewBox="0 0 25 24" fill="none" xmlns="http://www.w3.org/2000/svg">
<path d="M21.1659 13.7967C20.3286 13.8025 19.6009 14.0714 18.9916 14.4689C18.768 13.8785 18.5444 13.3524 18.505 12.9666C18.4611 12.5165 18.4085 12.2418 18.4611 11.704C18.5137 11.1662 18.7505 10.4005 18.7461 10.342C18.7417 10.2836 18.6935 10.0089 18.2113 10.003C17.7291 9.99716 17.3126 10.1258 17.2644 10.2953C17.2162 10.4648 17.1241 10.8506 17.0627 11.2481C16.9795 11.8326 16.0983 13.9194 15.5942 15.0125C15.432 14.5858 15.2917 14.2117 15.261 13.9136C15.2172 13.4635 15.1646 13.1887 15.2172 12.651C15.2698 12.1132 15.5065 11.3474 15.5021 11.289C15.4978 11.2305 15.4495 10.9558 14.9673 10.95C14.4851 10.9441 14.0687 11.0727 14.0205 11.2422C13.9722 11.4117 13.9196 11.8092 13.8188 12.195C13.718 12.5808 12.5475 16.0647 12.2407 16.9649C12.0829 17.4267 11.947 17.7949 11.8505 18.0463C11.8505 18.0463 11.8461 18.0638 11.833 18.093C11.7497 18.3093 11.7015 18.4262 11.7015 18.4262C11.7015 18.4262 11.7015 18.4262 11.7015 18.4321C11.6357 18.5899 11.5656 18.736 11.5305 18.736C11.5042 18.736 11.456 18.3151 11.5393 17.7423C11.7146 16.5323 12.1311 14.6501 12.1267 14.5858C12.1267 14.5507 12.2056 14.2234 11.8549 14.0539C11.513 13.8843 11.3902 14.1649 11.3596 14.1649C11.3289 14.1649 11.307 14.2643 11.307 14.2643C11.307 14.2643 11.6883 12.1483 10.5793 12.1483C9.88664 12.1483 8.93099 13.1595 8.45755 14.0714C8.15946 14.2877 7.52383 14.7495 6.84435 15.2463C6.58571 15.4392 6.31831 15.6321 6.06844 15.8133C6.0509 15.7899 6.03337 15.7607 6.01584 15.7373C4.67443 13.8259 2.19325 12.4756 2.29846 9.90948C2.33792 8.97422 2.57902 6.51915 7.06354 3.538C10.7546 1.11217 13.6917 1.78439 14.2002 3.27496C14.9279 5.40268 12.6264 9.35417 8.81263 9.92702C7.35724 10.1433 6.59448 9.39508 6.4016 9.1145C6.19995 8.82224 6.16926 8.8047 6.09474 8.86315C5.972 8.95084 6.0509 9.21388 6.09474 9.36586C6.20872 9.76334 6.67777 10.4648 7.47122 10.8097C8.17261 11.1136 9.87787 11.2831 11.9426 10.2193C14.2528 9.02682 16.0589 5.71249 15.5284 2.93593C14.998 0.118449 11.4911 -0.810968 8.17261 0.761442C6.19995 1.6967 4.06071 3.16974 2.52203 5.08703C0.694032 7.36673 0.404708 9.34832 0.523068 10.1784C0.948286 13.1244 3.99495 15.0417 5.21362 16.4622C5.15225 16.5089 5.09526 16.5498 5.04704 16.5849C4.43771 16.9882 2.11435 18.6074 1.5357 20.3201C0.878147 22.2608 1.64091 23.652 2.14503 23.839C3.71001 24.4177 5.31883 23.3773 6.18242 21.6587C7.046 19.9402 6.94079 17.7072 6.54188 16.6843C6.53749 16.6726 6.53311 16.6609 6.52434 16.6492C6.68216 16.5265 6.84435 16.3979 7.00217 16.2751C7.31341 16.0296 7.62027 15.8016 7.88329 15.6146C7.73424 16.1582 7.62465 16.807 7.57205 17.7423C7.50629 18.8412 7.84384 20.2675 8.28659 20.8287C8.48385 21.0742 8.71619 21.08 8.86524 21.08C9.38251 21.08 9.61485 20.5072 9.87348 19.8291C10.1891 18.9991 10.4741 18.0346 10.4741 18.0346C10.4741 18.0346 10.119 20.6416 11.0834 20.6416C11.4341 20.6416 11.7892 20.0337 11.947 19.7239C11.947 19.7297 11.947 19.7297 11.947 19.7297C11.947 19.7297 11.9557 19.7122 11.9733 19.6713C12.0083 19.5953 12.0303 19.5485 12.0303 19.5485C12.0303 19.5485 12.0303 19.5427 12.0303 19.5368C12.1705 19.2095 12.4862 18.4671 12.9552 17.2338C13.5602 15.6438 14.1432 13.6564 14.1432 13.6564C14.1432 13.6564 14.1958 14.1415 14.3755 14.9482C14.4807 15.4217 14.6999 15.9419 14.8753 16.4446C14.735 16.7077 14.6473 16.8538 14.6473 16.8538C14.6473 16.8538 14.6473 16.8538 14.6517 16.8596C14.5377 17.0584 14.415 17.2747 14.2791 17.4851C13.8013 18.245 13.2314 19.116 13.1525 19.3673C13.0604 19.6654 13.0823 19.8817 13.2577 20.0571C13.3848 20.1857 13.6128 20.2032 13.8451 20.1857C14.2747 20.1448 14.5772 20.0045 14.7262 19.9168C14.9586 19.8057 15.2304 19.6362 15.4846 19.3849C15.9537 18.9231 16.2386 18.2625 16.2123 17.3916C16.1992 16.9123 16.0808 16.4329 15.9361 15.9828C15.98 15.901 16.0194 15.8192 16.0633 15.7373C16.8041 14.2935 17.3784 12.7094 17.3784 12.7094C17.3784 12.7094 17.431 13.1946 17.6107 14.0013C17.6984 14.4104 17.8781 14.8547 18.0359 15.2872C17.3389 16.0413 16.9093 16.9181 16.7559 17.4909C16.4797 18.5548 16.6945 19.0341 17.1022 19.1452C17.2863 19.1978 17.5493 19.0809 17.7422 18.9698C17.9877 18.8646 18.277 18.6834 18.5532 18.4145C19.0223 17.9527 19.4738 17.3097 19.4475 16.4388C19.4343 16.0413 19.3554 15.6497 19.2458 15.2697C19.8376 14.9424 20.6004 14.7612 21.5736 14.9131C23.6602 15.2405 24.0723 16.9766 23.9934 17.7072C23.9145 18.4379 23.4761 18.8354 23.3314 18.9581C23.1868 19.0809 23.1385 19.1218 23.1517 19.2095C23.1692 19.3381 23.2394 19.3322 23.3621 19.3089C23.5331 19.2679 24.458 18.7185 24.4975 17.374C24.5632 15.6555 23.3358 13.7791 21.1659 13.7967ZM5.06896 21.0333C4.37633 22.0387 3.41192 22.4186 2.99547 22.0971C2.54833 21.7522 2.72368 20.2675 3.57412 19.2036C4.09139 18.5548 4.75772 17.9527 5.20047 17.5845C5.30129 17.5026 5.45034 17.3857 5.63007 17.2396C5.66076 17.2162 5.67829 17.2045 5.67829 17.2045C5.71336 17.1753 5.74843 17.1461 5.7835 17.1168C6.09474 18.6366 5.79665 19.9752 5.06896 21.0333ZM10.1102 16.4622C9.8691 17.2454 9.36498 19.2504 9.05812 19.1393C8.7951 19.0458 8.6329 17.526 9.00551 16.0238C9.19401 15.2697 9.59293 14.3695 9.82526 14.0188C10.2023 13.4576 10.6187 13.2706 10.7195 13.4985C10.8467 13.7967 10.2592 15.9711 10.1102 16.4622ZM14.2703 19.116C14.1695 19.1861 14.0731 19.2329 14.0292 19.1978C13.9985 19.1744 14.0731 19.0809 14.0731 19.0809C14.0731 19.0809 14.5947 18.3327 14.8008 17.9937C14.9191 17.7949 15.0594 17.5611 15.2084 17.2981C15.2084 17.3214 15.2084 17.3507 15.2084 17.374C15.2084 18.2684 14.5597 18.8705 14.2703 19.116ZM17.4792 18.1398C17.4047 18.0696 17.4178 17.8358 17.6677 17.1052C17.7641 16.8187 17.9921 16.3394 18.3822 15.8776C18.4261 16.0647 18.4568 16.2459 18.4524 16.4154C18.448 17.5436 17.843 17.9644 17.4792 18.1398Z" fill="#CD6799"/>
</svg>
