<svg width="26" height="26" viewBox="0 0 26 26" fill="none" xmlns="http://www.w3.org/2000/svg">
<path fill-rule="evenodd" clip-rule="evenodd" d="M9.53289 0.000244141C8.09564 0.00130428 6.93246 1.16534 6.93353 2.59971C6.93246 4.03408 8.0967 5.19812 9.53395 5.19918H12.1344V2.60077C12.1354 1.1664 10.9712 0.00236442 9.53289 0.000244141C9.53395 0.000244141 9.53395 0.000244141 9.53289 0.000244141ZM9.53289 6.93357H2.60055C1.1633 6.93463 -0.000937291 8.09867 0.000124973 9.53304C-0.00199956 10.9674 1.16224 12.1314 2.59949 12.1336H9.53289C10.9701 12.1325 12.1344 10.9685 12.1333 9.5341C12.1344 8.09867 10.9701 6.93463 9.53289 6.93357Z" fill="#36C5F0"/>
<path fill-rule="evenodd" clip-rule="evenodd" d="M26 9.53304C26.0011 8.09867 24.8368 6.93463 23.3996 6.93357C21.9623 6.93463 20.7981 8.09867 20.7992 9.53304V12.1336H23.3996C24.8368 12.1325 26.0011 10.9685 26 9.53304ZM19.0666 9.53304V2.59971C19.0677 1.1664 17.9045 0.00236442 16.4672 0.000244141C15.03 0.00130428 13.8658 1.16534 13.8668 2.59971V9.53304C13.8647 10.9674 15.0289 12.1314 16.4662 12.1336C17.9034 12.1325 19.0677 10.9685 19.0666 9.53304Z" fill="#2EB67D"/>
<path fill-rule="evenodd" clip-rule="evenodd" d="M16.4661 26.0001C17.9034 25.999 19.0676 24.835 19.0666 23.4006C19.0676 21.9663 17.9034 20.8022 16.4661 20.8012H13.8657V23.4006C13.8647 24.834 15.0289 25.998 16.4661 26.0001ZM16.4661 19.0657H23.3995C24.8368 19.0647 26.001 17.9006 26 16.4663C26.0021 15.0319 24.8379 13.8678 23.4006 13.8657H16.4672C15.03 13.8668 13.8657 15.0308 13.8668 16.4652C13.8657 17.9006 15.0289 19.0647 16.4661 19.0657Z" fill="#ECB22E"/>
<path fill-rule="evenodd" clip-rule="evenodd" d="M0.000122797 16.4662C-0.000939468 17.9005 1.1633 19.0646 2.60055 19.0656C4.03779 19.0646 5.20203 17.9005 5.20097 16.4662V13.8667H2.60055C1.1633 13.8678 -0.000939468 15.0318 0.000122797 16.4662ZM6.93352 16.4662V23.3995C6.9314 24.8339 8.09564 25.9979 9.53288 26C10.9701 25.999 12.1344 24.8349 12.1333 23.4006V16.4683C12.1354 15.0339 10.9712 13.8699 9.53395 13.8678C8.09564 13.8678 6.93246 15.0318 6.93352 16.4662Z" fill="#E01E5A"/>
</svg>
