<svg width="25" height="24" viewBox="0 0 25 24" fill="none" xmlns="http://www.w3.org/2000/svg">
<path d="M0.5 0H24.5V24H0.5V0Z" fill="#017ACB"/>
<path d="M12.0238 8.88752H13.175V10.875H10.0625V19.7175L9.98001 19.74C9.86751 19.77 8.38625 19.77 8.0675 19.7363L7.8125 19.7138V10.875H4.7V8.88752L5.68625 8.87627C6.22625 8.86877 7.61375 8.86877 8.76875 8.87627C9.92376 8.88377 11.3863 8.88752 12.0238 8.88752ZM20.81 18.78C20.3525 19.2638 19.8613 19.5338 19.0438 19.755C18.6875 19.8525 18.6275 19.8563 17.825 19.8525C17.0225 19.8488 16.9588 19.8488 16.5688 19.7475C15.56 19.4888 14.7463 18.9825 14.1913 18.2663C14.0338 18.0638 13.775 17.6438 13.775 17.5913C13.775 17.5763 13.8125 17.5425 13.8613 17.52C13.91 17.4975 14.0113 17.4338 14.0938 17.385C14.1763 17.3363 14.3263 17.2463 14.4275 17.1938C14.5288 17.1413 14.8213 16.9688 15.0763 16.815C15.3313 16.6613 15.5638 16.5375 15.59 16.5375C15.6163 16.5375 15.665 16.59 15.7025 16.6538C15.9275 17.0325 16.4525 17.5163 16.8238 17.6813C17.0525 17.7788 17.5588 17.8875 17.8025 17.8875C18.0275 17.8875 18.44 17.79 18.6613 17.6888C18.8975 17.58 19.0175 17.4713 19.16 17.2538C19.2575 17.1 19.2688 17.0588 19.265 16.7663C19.265 16.4963 19.25 16.4213 19.175 16.2975C18.965 15.9525 18.68 15.7725 17.525 15.2625C16.3325 14.7338 15.7963 14.4188 15.3613 13.995C15.0388 13.68 14.975 13.5938 14.7725 13.2C14.51 12.6938 14.4763 12.5288 14.4725 11.775C14.4688 11.2463 14.48 11.0738 14.5363 10.8938C14.615 10.6238 14.87 10.1025 14.9863 9.97127C15.2263 9.69002 15.3125 9.60377 15.4813 9.46502C15.9913 9.04502 16.7863 8.76752 17.5475 8.74127C17.6338 8.74127 17.9188 8.75627 18.185 8.77502C18.95 8.83877 19.4713 9.02627 19.9738 9.42752C20.3525 9.72752 20.9263 10.4325 20.87 10.5263C20.8325 10.5825 19.3363 11.58 19.2388 11.61C19.1788 11.6288 19.1375 11.6063 19.055 11.5088C18.545 10.8975 18.3388 10.7663 17.8438 10.7363C17.4913 10.7138 17.3038 10.755 17.0675 10.9125C16.82 11.0775 16.7 11.3288 16.7 11.6775C16.7038 12.1875 16.8988 12.4275 17.6188 12.7838C18.0838 13.0125 18.4813 13.2 18.5113 13.2C18.5563 13.2 19.52 13.68 19.7713 13.83C20.9413 14.5163 21.4175 15.2213 21.5413 16.4363C21.6313 17.3513 21.3725 18.1875 20.81 18.78Z" fill="white"/>
</svg>
