<svg width="26" height="26" viewBox="0 0 26 26" fill="none" xmlns="http://www.w3.org/2000/svg">
<path d="M0.247368 9.06651C0.247368 9.06651 -0.385894 8.6051 0.374021 7.98899L2.14452 6.38872C2.14452 6.38872 2.65113 5.84996 3.18676 6.31937L19.5249 18.8229V24.8185C19.5249 24.8185 19.517 25.76 18.3217 25.656L0.247368 9.06651Z" fill="#2489CA"/>
<path d="M4.45858 12.9313L0.247378 16.8013C0.247378 16.8013 -0.185352 17.1267 0.247378 17.7081L2.20258 19.5057C2.20258 19.5057 2.66697 20.0098 3.35301 19.4364L7.81751 16.0145L4.45858 12.9313Z" fill="#1070B3"/>
<path d="M11.8519 12.9632L19.5751 7.00221L19.525 1.0385C19.525 1.0385 19.1951 -0.263057 18.0948 0.414394L7.8175 9.86937L11.8519 12.9632Z" fill="#0877B9"/>
<path d="M18.3219 25.6641C18.7704 26.1282 19.314 25.9762 19.314 25.9762L25.3326 22.9783C26.1031 22.4476 25.9949 21.7888 25.9949 21.7888V3.88703C25.9949 3.10023 25.1981 2.82818 25.1981 2.82818L19.9816 0.286407C18.8417 -0.425716 18.095 0.414429 18.095 0.414429C18.095 0.414429 19.0554 -0.284358 19.5251 1.03854V24.7093C19.5251 24.872 19.4908 25.032 19.4222 25.176C19.285 25.4561 18.9868 25.7175 18.2718 25.6081L18.3219 25.6641Z" fill="#3C99D4"/>
</svg>
