<svg width="19" height="19" viewBox="0 0 19 19" fill="none" xmlns="http://www.w3.org/2000/svg">
<path d="M11.9341 13.5136C8.39759 13.5136 5.52038 10.5379 5.51941 6.8817C5.52038 5.95487 6.25033 5.2012 7.14486 5.2012C7.23683 5.2012 7.32783 5.20921 7.41496 5.22522C7.60664 5.25825 7.78865 5.32531 7.95614 5.4264C7.98034 5.44142 7.99679 5.46544 8.00067 5.49346L8.37435 7.92863C8.37919 7.95765 8.37048 7.98568 8.35209 8.0067C8.14588 8.24291 7.88256 8.41306 7.58922 8.49813L7.44788 8.53917L7.50112 8.68029C7.98324 9.94942 8.9649 10.9633 10.1934 11.4638L10.3299 11.5198L10.3696 11.3737C10.4519 11.0704 10.6165 10.7982 10.845 10.585C10.8614 10.569 10.8837 10.561 10.906 10.561C10.9108 10.561 10.9156 10.561 10.9214 10.562L13.2768 10.9483C13.3049 10.9533 13.3282 10.9693 13.3427 10.9944C13.4395 11.1675 13.5044 11.3567 13.5373 11.5548C13.5528 11.6429 13.5595 11.736 13.5595 11.8331C13.5595 12.7589 12.8305 13.5126 11.9341 13.5136Z" fill="#FDFDFD"/>
<path d="M18.2055 8.53316C18.0148 6.30518 17.0273 4.23835 15.4251 2.71399C13.8132 1.18063 11.7221 0.335876 9.53514 0.335876C4.73527 0.335876 0.829934 4.37347 0.829934 9.33588C0.829934 11.0014 1.27429 12.6238 2.11557 14.0371L0.23938 18.3309L6.24648 17.6693C7.29107 18.1117 8.39664 18.3359 9.53417 18.3359C9.83331 18.3359 10.1402 18.3199 10.4481 18.2868C10.7191 18.2568 10.9931 18.2128 11.2622 18.1567C15.2818 17.317 18.2161 13.6287 18.2394 9.38392V9.33588C18.2394 9.06564 18.2278 8.7954 18.2045 8.53316H18.2055ZM6.47786 15.7846L3.15436 16.1509L4.14667 13.8779L3.9482 13.6027C3.93368 13.5827 3.91916 13.5626 3.9027 13.5396C3.04109 12.3095 2.58607 10.8562 2.58607 9.33688C2.58607 5.37536 5.70337 2.15249 9.53514 2.15249C13.1249 2.15249 16.1676 5.04806 16.461 8.74435C16.4765 8.94253 16.4852 9.1417 16.4852 9.33788C16.4852 9.39393 16.4842 9.44898 16.4832 9.50803C16.4097 12.822 14.1704 15.6365 11.0376 16.3531C10.7985 16.4082 10.5536 16.4502 10.3096 16.4772C10.056 16.5073 9.79556 16.5223 9.53707 16.5223C8.61641 16.5223 7.72188 16.3381 6.87672 15.9738C6.78281 15.9347 6.69084 15.8927 6.60468 15.8497L6.47883 15.7866L6.47786 15.7846Z" fill="#FDFDFD"/>
</svg>
